<svg xmlns="http://www.w3.org/2000/svg" xmlns:xlink="http://www.w3.org/1999/xlink" viewBox="0,0,256,256" width="600px" height="600px" fill="#ffffff"><g fill-rule="nonzero" stroke="none" stroke-width="1" stroke-linecap="butt" stroke-linejoin="miter" stroke-miterlimit="10" stroke-dasharray="" stroke-dashoffset="0" font-family="none" font-weight="none" font-size="none" text-anchor="none" style="mix-blend-mode: normal"><g transform="scale(2.56,2.56)"><path d="M31,18c-7.18,0 -13,5.82 -13,13v39c0,7.18 5.82,13 13,13h39c7.18,0 13,-5.82 13,-13v-39c0,-7.18 -5.82,-13 -13,-13zM31,20h39c6.075,0 11,4.925 11,11v39c0,6.075 -4.925,11 -11,11h-39c-6.075,0 -11,-4.925 -11,-11v-39c0,-6.075 4.925,-11 11,-11zM33.83789,23c-5.985,0 -10.83789,4.85289 -10.83789,10.83789v33.32422c0,5.985 4.85289,10.83789 10.83789,10.83789h33.32422c5.985,0 10.83789,-4.85289 10.83789,-10.83789v-18.66211c0,-0.276 -0.224,-0.5 -0.5,-0.5c-0.276,0 -0.5,0.224 -0.5,0.5v18.66211c0,5.433 -4.40489,9.83789 -9.83789,9.83789h-33.32422c-5.433,0 -9.83789,-4.40489 -9.83789,-9.83789v-33.32422c0,-5.433 4.40489,-9.83789 9.83789,-9.83789h33.66211c0.276,0 0.5,-0.224 0.5,-0.5c0,-0.276 -0.224,-0.5 -0.5,-0.5zM44.23242,33.875c-0.02163,0.00121 -0.04316,0.00381 -0.06445,0.00781c-2.99611,0.51356 -5.86144,1.4177 -8.53906,2.66211c-0.08319,0.03867 -0.15414,0.09948 -0.20508,0.17578c-5.38122,8.05515 -6.85479,15.96448 -6.125,23.71484c0.01394,0.14102 0.08705,0.2695 0.20117,0.35352c3.57534,2.64529 7.05299,4.25938 10.46094,5.31055c0.20354,0.06297 0.42463,-0.00994 0.55078,-0.18164c0.84346,-1.15036 1.30216,-1.94637 1.94531,-3.22461c0.06392,-0.12689 0.07085,-0.27498 0.01904,-0.40729c-0.0518,-0.1323 -0.15744,-0.23632 -0.29053,-0.28607c-0.97563,-0.36697 -1.89291,-0.84725 -2.79492,-1.34766c0.06926,-0.07228 0.12781,-0.11892 0.20117,-0.19531c0.19725,-0.20538 0.33161,-0.3369 0.46094,-0.46484c6.60364,2.95546 13.34454,2.95561 19.875,-0.00586c0.15161,0.13258 0.31039,0.27248 0.5332,0.4707c0.07286,0.06482 0.11767,0.09826 0.1875,0.16016c-0.89154,0.49236 -1.79487,0.96666 -2.75586,1.32812c-0.13309,0.04975 -0.23873,0.15377 -0.29053,0.28607c-0.0518,0.1323 -0.04488,0.28039 0.01904,0.40729c0.6318,1.25271 0.99762,2.11212 1.85938,3.2832c0.12615,0.1717 0.34724,0.24462 0.55078,0.18164c3.41184,-1.05209 6.89321,-2.66598 10.46875,-5.31445c0.11386,-0.08483 0.18629,-0.21407 0.19922,-0.35547c0.8577,-8.98812 -1.47401,-16.8159 -6.14062,-23.7207c-0.05068,-0.0753 -0.12089,-0.1354 -0.20312,-0.17383c-2.67761,-1.24137 -5.54149,-2.14275 -8.5332,-2.65625c-0.20883,-0.03619 -0.41779,0.06321 -0.52148,0.24805c-0.31988,0.57348 -0.65625,1.29213 -0.94141,1.9375c-2.92868,-0.40212 -5.8358,-0.40213 -8.7168,0c-0.28811,-0.64753 -0.63035,-1.3671 -0.95312,-1.93945c-0.09244,-0.16388 -0.26905,-0.26199 -0.45703,-0.25391zM43.98242,34.95313c0.31487,0.58494 0.66199,1.26346 0.90039,1.83008c0.08861,0.21085 0.30898,0.3347 0.53516,0.30078c3.02765,-0.45951 6.08252,-0.45991 9.16992,0c0.22551,0.03296 0.44478,-0.09073 0.5332,-0.30078c0.23944,-0.56909 0.58062,-1.24614 0.89063,-1.83008c2.72297,0.49876 5.33623,1.31642 7.78711,2.43945c4.46266,6.6513 6.6759,14.10239 5.9082,22.71289c-3.28499,2.39961 -6.46637,3.89213 -9.60547,4.89648c-0.53805,-0.78085 -0.90792,-1.50083 -1.33789,-2.36914c1.04939,-0.42673 2.08127,-0.89388 3.04492,-1.46875c0.1439,-0.08569 0.23534,-0.23774 0.24359,-0.40502c0.00825,-0.16728 -0.0678,-0.32758 -0.20258,-0.42701c-0.09356,-0.06952 -0.41909,-0.35126 -0.72461,-0.62305c-0.30552,-0.27179 -0.60093,-0.53806 -0.76562,-0.67383c-0.14892,-0.1237 -0.35586,-0.15033 -0.53125,-0.06836c-6.50606,3.05122 -13.11109,3.05284 -19.69922,0c-0.17575,-0.08144 -0.38273,-0.05404 -0.53125,0.07031c-0.20347,0.17018 -0.45238,0.44303 -0.72656,0.72852c-0.27418,0.28549 -0.58642,0.58761 -0.63477,0.62305c-0.13497,0.09912 -0.21136,0.25922 -0.20351,0.42649c0.00785,0.16727 0.09891,0.3195 0.24257,0.40554c0.95591,0.5692 1.98217,1.03164 3.02539,1.45703c-0.43917,0.84669 -0.84401,1.54031 -1.40039,2.32422c-3.13809,-1.00345 -6.3213,-2.4953 -9.60937,-4.89453c-0.65788,-7.44728 0.75532,-14.95722 5.89453,-22.70703c2.45171,-1.1262 5.06967,-1.9483 7.79688,-2.44727zM77.5,36.92188c-0.276,0 -0.5,0.224 -0.5,0.5v2c0,0.276 0.224,0.5 0.5,0.5c0.276,0 0.5,-0.224 0.5,-0.5v-2c0,-0.276 -0.224,-0.5 -0.5,-0.5zM77.5,40.92188c-0.276,0 -0.5,0.224 -0.5,0.5v4c0,0.276 0.224,0.5 0.5,0.5c0.276,0 0.5,-0.224 0.5,-0.5v-4c0,-0.276 -0.224,-0.5 -0.5,-0.5zM43.23047,46.91992c-2.35256,0 -4.16406,2.12729 -4.16406,4.63086c0,2.50887 1.84273,4.62891 4.16406,4.62891c2.35066,0 4.16544,-2.12236 4.16406,-4.625c0.03677,-2.5157 -1.81441,-4.63477 -4.16406,-4.63477zM56.76953,46.91992c-2.35256,0 -4.16406,2.12729 -4.16406,4.63086c0,2.50887 1.84273,4.62891 4.16406,4.62891c2.35066,0 4.16214,-2.12317 4.16406,-4.625c0.03677,-2.5157 -1.81441,-4.63477 -4.16406,-4.63477zM43.23047,47.91992c1.7451,0 3.19526,1.5985 3.16406,3.62305c-0.00002,0.0026 -0.00002,0.00521 0,0.00781c0.0027,2.02763 -1.41797,3.62891 -3.16406,3.62891c-1.70467,0 -3.16406,-1.60577 -3.16406,-3.62891c0,-2.02843 1.41862,-3.63086 3.16406,-3.63086zM56.76953,47.91992c1.7451,0 3.19526,1.5985 3.16406,3.62305c-0.00002,0.0026 -0.00002,0.00521 0,0.00781c0,2.02843 -1.41797,3.62891 -3.16406,3.62891c-1.70467,0 -3.16406,-1.60577 -3.16406,-3.62891c0,-2.02843 1.41862,-3.63086 3.16406,-3.63086z"></path></g></g></svg>